<svg width="186" height="61" viewBox="0 0 186 61" fill="none" xmlns="http://www.w3.org/2000/svg">
<path d="M45.7081 29.7183C45.6671 26.1896 48.7831 24.4702 48.9334 24.3932C47.1704 21.9809 44.4371 21.6473 43.4804 21.6216C41.1844 21.3907 38.9567 22.9048 37.795 22.9048C36.606 22.9048 34.802 21.6345 32.8614 21.673C30.3604 21.7114 28.0233 23.0716 26.7523 25.1759C24.1147 29.4745 26.0827 35.7876 28.611 39.2649C29.882 40.9715 31.358 42.8705 33.2987 42.7935C35.1984 42.7165 35.909 41.6644 38.1914 41.6644C40.46 41.6644 41.1161 42.7935 43.0977 42.755C45.1341 42.7294 46.4187 41.0485 47.6351 39.329C49.0974 37.3787 49.6851 35.4539 49.7124 35.3641C49.6441 35.3513 45.7491 33.9527 45.7081 29.7183Z" fill="white"/>
<path d="M41.9774 19.3376C43.0024 18.1443 43.6994 16.5146 43.4944 14.8594C42.0184 14.9235 40.1734 15.8217 39.1074 16.9894C38.1644 18.0159 37.3307 19.7097 37.5494 21.3008C39.2031 21.4163 40.9114 20.5181 41.9774 19.3376Z" fill="white"/>
<path d="M69.6656 38.4949H63.2013L61.6434 42.8063H58.91L65.0327 26.8696H67.8753L73.998 42.8063H71.21L69.6656 38.4949ZM63.871 36.506H68.996L66.4677 29.5129H66.3993L63.871 36.506Z" fill="white"/>
<path d="M87.2407 36.9941C87.2407 40.5997 85.1771 42.9222 82.0748 42.9222C80.3118 42.9222 78.9179 42.178 78.1799 40.8948H78.1252V46.6433H75.5833V31.1814H78.0432V33.119H78.0842C78.7949 31.8743 80.2982 31.0659 82.0202 31.0659C85.1771 31.0659 87.2407 33.3884 87.2407 36.9941ZM84.6304 36.9941C84.6304 34.6459 83.3321 33.0933 81.3642 33.0933C79.4235 33.0933 78.1115 34.6716 78.1115 36.9941C78.1115 39.3294 79.4235 40.9077 81.3642 40.9077C83.3321 40.9077 84.6304 39.3679 84.6304 36.9941Z" fill="white"/>
<path d="M100.853 36.9941C100.853 40.5997 98.7896 42.9222 95.6872 42.9222C93.9242 42.9222 92.5302 42.178 91.7922 40.8948H91.7376V46.6433H89.2092V31.1814H91.6692V33.119H91.7102C92.4209 31.8743 93.9242 31.0659 95.6462 31.0659C98.7896 31.0659 100.853 33.3884 100.853 36.9941ZM98.2429 36.9941C98.2429 34.6459 96.9446 33.0933 94.9766 33.0933C93.0359 33.0933 91.7239 34.6716 91.7239 36.9941C91.7239 39.3294 93.0359 40.9077 94.9766 40.9077C96.9582 40.9077 98.2429 39.3679 98.2429 36.9941Z" fill="white"/>
<path d="M109.86 38.3666C110.051 39.9448 111.677 40.9842 113.919 40.9842C116.064 40.9842 117.595 39.9448 117.595 38.5205C117.595 37.2887 116.666 36.5445 114.465 36.0312L112.265 35.5308C109.149 34.8251 107.7 33.4521 107.7 31.2323C107.7 28.4863 110.256 26.6001 113.878 26.6001C117.458 26.6001 119.918 28.4863 120 31.2323H117.431C117.281 29.6412 115.873 28.6788 113.837 28.6788C111.8 28.6788 110.393 29.654 110.393 31.0655C110.393 32.1946 111.281 32.849 113.468 33.3623L115.34 33.7986C118.825 34.5684 120.274 35.8901 120.274 38.2126C120.274 41.1895 117.745 43.0629 113.727 43.0629C109.969 43.0629 107.427 41.2408 107.263 38.3537H109.86V38.3666Z" fill="white"/>
<path d="M125.766 28.4346V31.1805H128.117V33.0667H125.766V39.4696C125.766 40.4705 126.231 40.9324 127.27 40.9324C127.529 40.9324 127.939 40.8939 128.103 40.8811V42.7545C127.816 42.8186 127.256 42.87 126.696 42.87C124.195 42.87 123.211 41.9846 123.211 39.7391V33.0796H121.407V31.1933H123.211V28.4346H125.766Z" fill="white"/>
<path d="M129.471 36.9933C129.471 33.3364 131.767 31.0396 135.334 31.0396C138.915 31.0396 141.197 33.3364 141.197 36.9933C141.197 40.6631 138.928 42.9471 135.334 42.9471C131.753 42.9471 129.471 40.6631 129.471 36.9933ZM138.628 36.9933C138.628 34.4912 137.398 33.0028 135.348 33.0028C133.298 33.0028 132.068 34.4912 132.068 36.9933C132.068 39.5083 133.284 40.9839 135.348 40.9839C137.411 40.9839 138.628 39.5083 138.628 36.9933Z" fill="white"/>
<path d="M143.315 31.181H145.734V33.1571H145.789C146.171 31.8483 147.306 31.0527 148.768 31.0527C149.137 31.0527 149.438 31.1041 149.643 31.1426V33.3752C149.438 33.2982 149 33.2341 148.508 33.2341C146.868 33.2341 145.857 34.2734 145.857 35.903V42.7935H143.315V31.181Z" fill="white"/>
<path d="M161.34 39.3928C160.999 41.4972 158.812 42.9471 156.011 42.9471C152.416 42.9471 150.175 40.6888 150.175 37.0447C150.175 33.4005 152.416 31.0396 155.901 31.0396C159.318 31.0396 161.477 33.2466 161.477 36.7752V37.5964H152.744V37.7375C152.744 39.7264 154.07 41.0224 156.079 41.0224C157.487 41.0224 158.594 40.3937 158.935 39.3928H161.34ZM152.758 35.9155H158.949C158.894 34.1319 157.678 32.9643 155.915 32.9643C154.166 32.9771 152.895 34.1704 152.758 35.9155Z" fill="white"/>
<path d="M63.5561 14.8721C65.9751 14.8721 67.3964 16.2707 67.3964 18.6702C67.3964 21.121 65.9888 22.5196 63.5561 22.5196H60.604V14.8721H63.5561ZM61.875 21.4418H63.4057C65.1141 21.4418 66.0981 20.4409 66.0981 18.683C66.0981 16.9508 65.1004 15.9499 63.4057 15.9499H61.875V21.4418Z" fill="white"/>
<path d="M68.8179 19.633C68.8179 17.7724 69.9249 16.6304 71.7152 16.6304C73.5055 16.6304 74.6125 17.7596 74.6125 19.633C74.6125 21.5064 73.5055 22.6356 71.7152 22.6356C69.9249 22.6356 68.8179 21.5064 68.8179 19.633ZM73.3689 19.633C73.3689 18.3755 72.7675 17.6441 71.7152 17.6441C70.6629 17.6441 70.0615 18.3755 70.0615 19.633C70.0615 20.8905 70.6492 21.6219 71.7152 21.6219C72.7812 21.6219 73.3689 20.8905 73.3689 19.633Z" fill="white"/>
<path d="M82.334 22.5325H81.0767L79.8057 18.2724H79.71L78.439 22.5325H77.1954L75.5007 16.7583H76.7307L77.8377 21.1723H77.9334L79.2044 16.7583H80.366L81.637 21.1723H81.7327L82.826 16.7583H84.0423L82.334 22.5325Z" fill="white"/>
<path d="M85.4503 16.7457H86.6257V17.6696H86.7213C87.022 17.028 87.637 16.6431 88.5527 16.6431C89.9194 16.6431 90.6847 17.413 90.6847 18.7859V22.5327H89.4684V19.0811C89.4684 18.1572 89.0447 17.6953 88.1427 17.6953C87.2407 17.6953 86.6667 18.2598 86.6667 19.158V22.5327H85.4503V16.7457Z" fill="white"/>
<path d="M92.6116 14.5H93.828V22.5325H92.6116V14.5Z" fill="white"/>
<path d="M95.5232 19.633C95.5232 17.7724 96.6302 16.6304 98.4205 16.6304C100.211 16.6304 101.318 17.7596 101.318 19.633C101.318 21.5064 100.211 22.6356 98.4205 22.6356C96.6165 22.6356 95.5232 21.5064 95.5232 19.633ZM100.074 19.633C100.074 18.3755 99.4728 17.6441 98.4205 17.6441C97.3681 17.6441 96.7668 18.3755 96.7668 19.633C96.7668 20.8905 97.3545 21.6219 98.4205 21.6219C99.4728 21.6219 100.074 20.8905 100.074 19.633Z" fill="white"/>
<path d="M102.602 20.8903C102.602 19.851 103.422 19.2479 104.884 19.1709L106.552 19.0811V18.5806C106.552 17.9647 106.128 17.6311 105.294 17.6311C104.611 17.6311 104.146 17.8621 104.01 18.2727H102.834C102.957 17.2846 103.955 16.6431 105.349 16.6431C106.893 16.6431 107.768 17.3616 107.768 18.5806V22.5328H106.593V21.7244H106.497C106.128 22.3018 105.458 22.6354 104.652 22.6354C103.463 22.6226 102.602 21.9553 102.602 20.8903ZM106.565 20.4027V19.9151L105.062 20.0049C104.215 20.0563 103.832 20.3257 103.832 20.839C103.832 21.3651 104.31 21.6602 104.966 21.6602C105.882 21.6602 106.565 21.1213 106.565 20.4027Z" fill="white"/>
<path d="M109.366 19.6326C109.366 17.8105 110.364 16.6557 111.922 16.6557C112.769 16.6557 113.48 17.0278 113.808 17.6694H113.904V14.5H115.12V22.5325H113.945V21.6215H113.849C113.48 22.2502 112.769 22.6352 111.922 22.6352C110.35 22.6223 109.366 21.4675 109.366 19.6326ZM110.624 19.6326C110.624 20.8644 111.239 21.5958 112.264 21.5958C113.289 21.5958 113.917 20.8516 113.917 19.6326C113.917 18.4264 113.275 17.6694 112.264 17.6694C111.239 17.6822 110.624 18.4264 110.624 19.6326Z" fill="white"/>
<path d="M120.136 19.633C120.136 17.7724 121.243 16.6304 123.033 16.6304C124.824 16.6304 125.931 17.7596 125.931 19.633C125.931 21.5064 124.824 22.6356 123.033 22.6356C121.243 22.6356 120.136 21.5064 120.136 19.633ZM124.687 19.633C124.687 18.3755 124.086 17.6441 123.033 17.6441C121.981 17.6441 121.38 18.3755 121.38 19.633C121.38 20.8905 121.967 21.6219 123.033 21.6219C124.086 21.6219 124.687 20.8905 124.687 19.633Z" fill="white"/>
<path d="M127.571 16.7457H128.746V17.6696H128.842C129.142 17.028 129.757 16.6431 130.673 16.6431C132.04 16.6431 132.805 17.413 132.805 18.7859V22.5327H131.589V19.0811C131.589 18.1572 131.165 17.6953 130.263 17.6953C129.361 17.6953 128.787 18.2598 128.787 19.158V22.5327H127.571V16.7457Z" fill="white"/>
<path d="M139.665 15.3081V16.7709H141.005V17.7332H139.665V20.7101C139.665 21.3132 139.925 21.5827 140.54 21.5827C140.731 21.5827 140.827 21.5698 141.005 21.557V22.5065C140.813 22.5322 140.581 22.5707 140.349 22.5707C138.996 22.5707 138.463 22.1216 138.463 21.0052V17.7461H137.492V16.7837H138.463V15.3081H139.665Z" fill="white"/>
<path d="M142.645 14.5H143.847V17.6822H143.943C144.244 17.0406 144.886 16.6429 145.815 16.6429C147.127 16.6429 147.934 17.4256 147.934 18.7985V22.5325H146.717V19.0808C146.717 18.157 146.266 17.695 145.405 17.695C144.408 17.695 143.861 18.2853 143.861 19.1578V22.5325H142.645V14.5Z" fill="white"/>
<path d="M155.026 20.9673C154.753 22.0067 153.769 22.6354 152.361 22.6354C150.599 22.6354 149.519 21.5062 149.519 19.6585C149.519 17.8107 150.626 16.6431 152.361 16.6431C154.07 16.6431 155.108 17.7466 155.108 19.5558V19.9536H150.763V20.0178C150.804 21.0315 151.432 21.673 152.402 21.673C153.14 21.673 153.646 21.4292 153.865 20.9673H155.026ZM150.763 19.1067H153.865C153.837 18.1957 153.25 17.6054 152.348 17.6054C151.446 17.6054 150.831 18.2085 150.763 19.1067Z" fill="white"/>
<rect x="0.5" y="0.5" width="185" height="60" rx="8" stroke="white"/>
</svg>
