<svg width="186" height="61" viewBox="0 0 186 61" fill="none" xmlns="http://www.w3.org/2000/svg">
<path d="M64.6809 17.8247C64.6809 18.9025 64.3392 19.7622 63.6559 20.391C62.8906 21.148 61.8792 21.533 60.6493 21.533C59.4603 21.533 58.4626 21.148 57.6289 20.3782C56.7953 19.6083 56.3853 18.6459 56.3853 17.5167C56.3853 16.3747 56.7953 15.4252 57.6289 14.6553C58.4626 13.8854 59.4603 13.5005 60.6493 13.5005C61.2369 13.5005 61.7972 13.6031 62.3302 13.8213C62.8632 14.0394 63.2869 14.3217 63.6149 14.681L62.8906 15.3611C62.3439 14.758 61.6059 14.45 60.6493 14.45C59.7883 14.45 59.0366 14.7323 58.4079 15.3097C57.7793 15.8743 57.4649 16.6185 57.4649 17.5296C57.4649 18.4406 57.7793 19.1848 58.4079 19.7494C59.0366 20.314 59.7883 20.6091 60.6493 20.6091C61.5649 20.6091 62.3302 20.3268 62.9452 19.7494C63.3416 19.3773 63.5739 18.8512 63.6286 18.184H60.6493V17.2473H64.6262C64.6536 17.4526 64.6809 17.6451 64.6809 17.8247Z" fill="white" stroke="white" stroke-width="0.256629" stroke-miterlimit="10"/>
<path d="M70.981 14.617H67.2499V17.055H70.6119V17.9789H67.2499V20.4168H70.981V21.3664H66.1975V13.6675H70.981V14.617Z" fill="white" stroke="white" stroke-width="0.256629" stroke-miterlimit="10"/>
<path d="M75.4224 21.3664H74.3701V14.617H72.0741V13.6675H77.7048V14.617H75.4088V21.3664H75.4224Z" fill="white" stroke="white" stroke-width="0.256629" stroke-miterlimit="10"/>
<path d="M81.7908 21.3664V13.6675H82.843V21.3664H81.7908Z" fill="white" stroke="white" stroke-width="0.256629" stroke-miterlimit="10"/>
<path d="M87.518 21.3664H86.4657V14.617H84.1697V13.6675H89.8004V14.617H87.5044V21.3664H87.518Z" fill="white" stroke="white" stroke-width="0.256629" stroke-miterlimit="10"/>
<path d="M100.473 20.3648C99.667 21.1476 98.6694 21.5325 97.4667 21.5325C96.2641 21.5325 95.2664 21.1476 94.4601 20.3648C93.6538 19.5821 93.2574 18.6326 93.2574 17.5163C93.2574 16.3999 93.6538 15.4376 94.4601 14.6677C95.2664 13.8849 96.2641 13.5 97.4667 13.5C98.6557 13.5 99.6534 13.8849 100.473 14.6677C101.28 15.4504 101.69 16.3999 101.69 17.5163C101.676 18.6454 101.28 19.595 100.473 20.3648ZM95.2391 19.7233C95.8404 20.3007 96.5921 20.583 97.4667 20.583C98.3414 20.583 99.093 20.3007 99.6944 19.7233C100.296 19.1459 100.61 18.4145 100.61 17.5163C100.61 16.618 100.309 15.8867 99.6944 15.3092C99.093 14.7318 98.3414 14.4367 97.4667 14.4367C96.5921 14.4367 95.8404 14.719 95.2391 15.2964C94.6378 15.8867 94.3234 16.618 94.3234 17.5163C94.3234 18.4145 94.6378 19.1459 95.2391 19.7233Z" fill="white" stroke="white" stroke-width="0.256629" stroke-miterlimit="10"/>
<path d="M103.166 21.3664V13.6675H104.451L108.441 19.6598H108.482L108.441 18.1713V13.6675H109.494V21.3664H108.4L104.232 15.0918H104.191L104.232 16.5802V21.3664H103.166Z" fill="white" stroke="white" stroke-width="0.256629" stroke-miterlimit="10"/>
<path d="M92.998 32.5928C89.7863 32.5928 87.1623 34.8896 87.1623 38.0462C87.1623 41.1899 89.7863 43.4996 92.998 43.4996C96.2096 43.4996 98.8336 41.1899 98.8336 38.0462C98.8336 34.8896 96.2096 32.5928 92.998 32.5928ZM92.998 41.3567C91.235 41.3567 89.718 39.9966 89.718 38.0462C89.718 36.083 91.235 34.7357 92.998 34.7357C94.761 34.7357 96.278 36.083 96.278 38.0462C96.278 39.9966 94.7473 41.3567 92.998 41.3567ZM80.2607 32.5928C77.049 32.5928 74.425 34.8896 74.425 38.0462C74.425 41.1899 77.049 43.4996 80.2607 43.4996C83.4723 43.4996 86.0963 41.1899 86.0963 38.0462C86.0963 34.8896 83.4723 32.5928 80.2607 32.5928ZM80.2607 41.3567C78.4977 41.3567 76.9807 39.9966 76.9807 38.0462C76.9807 36.083 78.4977 34.7357 80.2607 34.7357C82.0237 34.7357 83.5407 36.083 83.5407 38.0462C83.5407 39.9966 82.0237 41.3567 80.2607 41.3567ZM65.1181 34.2737V36.5834H71.022C70.8444 37.8794 70.3797 38.8417 69.6827 39.4961C68.8217 40.3045 67.4824 41.1899 65.1317 41.1899C61.4964 41.1899 58.6537 38.444 58.6537 35.0308C58.6537 31.6176 61.4964 28.8717 65.1317 28.8717C67.0861 28.8717 68.5211 29.5902 69.5734 30.5269L71.309 28.8973C69.833 27.5757 67.8787 26.562 65.1181 26.562C60.1434 26.562 55.9614 30.3601 55.9614 35.0436C55.9614 39.7143 60.1434 43.5252 65.1181 43.5252C67.8104 43.5252 69.833 42.704 71.4184 41.1514C73.0447 39.6245 73.5504 37.4688 73.5504 35.7365C73.5504 35.1976 73.5094 34.6972 73.4137 34.2866H65.1181V34.2737ZM127.042 36.0701C126.563 34.8511 125.087 32.5928 122.067 32.5928C119.074 32.5928 116.587 34.7998 116.587 38.0462C116.587 41.1001 119.047 43.4996 122.354 43.4996C125.019 43.4996 126.563 41.9726 127.192 41.0872L125.21 39.8426C124.554 40.7536 123.652 41.3567 122.354 41.3567C121.056 41.3567 120.126 40.7921 119.539 39.7015L127.315 36.6861L127.042 36.0701ZM119.115 37.8922C119.047 35.7878 120.851 34.71 122.149 34.71C123.16 34.71 124.021 35.1848 124.308 35.8648L119.115 37.8922ZM112.801 43.1788H115.357V27.1394H112.801V43.1788ZM108.619 33.8118H108.523C107.949 33.1702 106.856 32.5928 105.462 32.5928C102.551 32.5928 99.886 34.9923 99.886 38.0719C99.886 41.1257 102.551 43.5124 105.462 43.5124C106.842 43.5124 107.949 42.935 108.523 42.2677H108.605V43.0505C108.605 45.142 107.416 46.2583 105.503 46.2583C103.945 46.2583 102.975 45.2062 102.578 44.3208L100.351 45.1933C100.993 46.6433 102.688 48.414 105.503 48.414C108.496 48.414 111.024 46.7588 111.024 42.7297V32.9264H108.605V33.8118H108.619ZM105.681 41.3567C103.918 41.3567 102.442 39.9709 102.442 38.0719C102.442 36.1471 103.918 34.7485 105.681 34.7485C107.416 34.7485 108.783 36.16 108.783 38.0719C108.797 39.9709 107.43 41.3567 105.681 41.3567ZM139.013 27.1394H132.905V43.1788H135.46V37.0967H139.027C141.856 37.0967 144.63 35.1719 144.63 32.118C144.63 29.0642 141.829 27.1394 139.013 27.1394ZM139.068 34.864H135.447V29.3593H139.068C140.981 29.3593 142.061 30.8477 142.061 32.1052C142.061 33.3627 140.981 34.864 139.068 34.864ZM154.839 32.5671C152.994 32.5671 151.081 33.337 150.288 35.018L152.557 35.9033C153.035 35.018 153.937 34.7228 154.88 34.7228C156.206 34.7228 157.545 35.4671 157.559 36.7887V36.9555C157.094 36.7117 156.11 36.3396 154.894 36.3396C152.448 36.3396 149.974 37.5971 149.974 39.9452C149.974 42.0881 151.969 43.4739 154.211 43.4739C155.919 43.4739 156.876 42.7553 157.463 41.9085H157.545V43.1531H160.005V37.0068C160.019 34.1582 157.75 32.5671 154.839 32.5671ZM154.525 41.3567C153.691 41.3567 152.53 40.9589 152.53 39.9966C152.53 38.7648 153.978 38.29 155.236 38.29C156.356 38.29 156.889 38.521 157.559 38.8289C157.368 40.3045 156.001 41.3567 154.525 41.3567ZM168.984 32.9136L166.06 39.8683H165.978L162.944 32.9136H160.197L164.748 42.6399L162.151 48.0419H164.816L171.827 32.9136H168.984ZM146.024 43.1788H148.58V27.1394H146.024V43.1788Z" fill="white"/>
<path d="M14.1416 14.3594C13.7453 14.7571 13.5129 15.373 13.5129 16.1558V44.539C13.5129 45.3346 13.7453 45.9505 14.1416 46.3354L14.2373 46.4252L31.1703 30.5399V30.3474V30.1549L14.2373 14.2695L14.1416 14.3594Z" fill="url(#paint0_linear_736_5806)"/>
<path d="M36.8165 35.8393L31.1721 30.5398V30.3474V30.1549L36.8165 24.8555L36.9395 24.9196L43.6226 28.4868C45.5359 29.5005 45.5359 31.1686 43.6226 32.1951L36.9395 35.7623L36.8165 35.8393Z" fill="url(#paint1_linear_736_5806)"/>
<path d="M36.9387 35.7754L31.1714 30.3477L14.1428 46.3357C14.7715 46.9644 15.8101 47.0414 16.9855 46.4127L36.9387 35.7754Z" fill="url(#paint2_linear_736_5806)"/>
<path d="M36.9382 24.9326L16.9713 14.2825C15.796 13.6537 14.7573 13.7307 14.1287 14.3595L31.1709 30.3475L36.9382 24.9326Z" fill="url(#paint3_linear_736_5806)"/>
<path opacity="0.2" d="M36.8145 35.647L16.9706 46.2329C15.8636 46.8232 14.8659 46.7847 14.2373 46.2458L14.1416 46.3356L14.2373 46.4254C14.8796 46.9643 15.8636 47.0028 16.9706 46.4126L36.9375 35.7625L36.8145 35.647Z" fill="black"/>
<path opacity="0.12" d="M14.1405 46.1558C13.7441 45.758 13.5117 45.1421 13.5117 44.3594V44.5518C13.5117 45.3474 13.7441 45.9633 14.1405 46.3482L14.2362 46.2584L14.1405 46.1558Z" fill="black"/>
<path opacity="0.12" d="M43.6219 32.0157L36.8022 35.647L36.9252 35.7625L43.6082 32.1954C44.5649 31.6821 45.0432 31.0149 45.0432 30.3477C44.9749 30.9507 44.4966 31.5538 43.6219 32.0157Z" fill="black"/>
<path opacity="0.25" d="M16.9713 14.4631L43.6214 28.6804C44.4824 29.1423 44.9744 29.7326 45.0564 30.3485C45.0564 29.6812 44.5781 29.0012 43.6214 28.5007L16.9713 14.2835C15.058 13.2698 13.5 14.1167 13.5 16.1697V16.3622C13.5 14.2963 15.0717 13.4494 16.9713 14.4631Z" fill="white"/>
<rect x="0.5" y="0.5" width="185" height="60" rx="8" stroke="white"/>
<defs>
<linearGradient id="paint0_linear_736_5806" x1="29.6664" y1="15.8604" x2="8.17484" y2="38.7508" gradientUnits="userSpaceOnUse">
<stop stop-color="#00A0FF"/>
<stop offset="0.00657445" stop-color="#00A1FF"/>
<stop offset="0.2601" stop-color="#00BEFF"/>
<stop offset="0.5122" stop-color="#00D2FF"/>
<stop offset="0.7604" stop-color="#00DFFF"/>
<stop offset="1" stop-color="#00E3FF"/>
</linearGradient>
<linearGradient id="paint1_linear_736_5806" x1="46.1158" y1="30.3493" x2="13.0464" y2="30.3493" gradientUnits="userSpaceOnUse">
<stop stop-color="#FFE000"/>
<stop offset="0.4087" stop-color="#FFBD00"/>
<stop offset="0.7754" stop-color="#FFA500"/>
<stop offset="1" stop-color="#FF9C00"/>
</linearGradient>
<linearGradient id="paint2_linear_736_5806" x1="33.8048" y1="33.294" x2="4.66053" y2="64.3352" gradientUnits="userSpaceOnUse">
<stop stop-color="#FF3A44"/>
<stop offset="1" stop-color="#C31162"/>
</linearGradient>
<linearGradient id="paint3_linear_736_5806" x1="9.8472" y1="4.91076" x2="22.8614" y2="18.7719" gradientUnits="userSpaceOnUse">
<stop stop-color="#32A071"/>
<stop offset="0.0685" stop-color="#2DA771"/>
<stop offset="0.4762" stop-color="#15CF74"/>
<stop offset="0.8009" stop-color="#06E775"/>
<stop offset="1" stop-color="#00F076"/>
</linearGradient>
</defs>
</svg>
